<?xml version="1.0" standalone="no"?>
<!DOCTYPE svg PUBLIC "-//W3C//DTD SVG 20010904//EN"
 "http://www.w3.org/TR/2001/REC-SVG-20010904/DTD/svg10.dtd">
<svg version="1.0" xmlns="http://www.w3.org/2000/svg"
 width="538.000000pt" height="538.000000pt" viewBox="0 0 538.000000 538.000000"
 preserveAspectRatio="xMidYMid meet">
<metadata>
Created by potrace 1.14, written by Peter Selinger 2001-2017
</metadata>
<g transform="translate(0.000000,538.000000) scale(0.100000,-0.100000)"
fill="#000000" stroke="none">
<path d="M2489 5306 c-2 -2 -47 -7 -99 -11 -52 -3 -97 -8 -100 -10 -3 -1 -27
-6 -55 -9 -101 -14 -251 -49 -374 -88 -416 -131 -768 -344 -1071 -648 -388
-387 -627 -844 -734 -1405 -46 -240 -51 -591 -11 -825 4 -22 8 -50 9 -63 2
-12 6 -35 10 -52 3 -16 8 -39 10 -50 22 -112 87 -331 122 -410 7 -16 25 -59
40 -95 140 -341 420 -718 710 -957 109 -89 124 -100 199 -151 39 -26 71 -50
73 -54 2 -5 8 -8 14 -8 5 0 22 -8 36 -19 68 -48 277 -153 407 -204 140 -55
390 -127 490 -142 11 -2 54 -8 95 -14 294 -45 659 -32 953 35 153 35 349 98
467 151 327 147 567 310 806 548 256 255 429 512 584 870 60 138 131 394 156
555 2 19 7 46 10 60 2 14 6 36 9 48 22 120 22 476 -1 651 -25 196 -96 476
-159 626 -131 314 -258 527 -443 745 -428 504 -1019 822 -1692 910 -80 11
-453 24 -461 16z m421 -461 c19 -3 73 -13 120 -21 406 -71 815 -282 1107 -572
124 -122 155 -157 229 -257 187 -252 311 -524 378 -825 36 -167 49 -276 50
-445 1 -237 -16 -373 -75 -590 -174 -636 -625 -1153 -1236 -1413 -103 -44
-271 -100 -352 -118 -415 -89 -801 -70 -1176 57 -432 146 -782 406 -1073 794
-4 6 -24 35 -43 65 -193 295 -314 642 -346 990 -12 132 -4 454 12 503 2 7 6
28 9 47 43 281 169 598 336 844 243 362 585 638 987 800 178 71 396 127 562
142 36 4 68 8 70 10 6 6 403 -4 441 -11z"/>
<path d="M2045 3509 c-128 -103 -300 -219 -390 -261 -57 -27 -82 -33 -135 -33
-57 0 -74 5 -133 38 -56 32 -204 136 -243 172 -6 5 -40 35 -75 65 -34 30 -70
63 -78 73 -9 9 -22 17 -29 17 -11 0 -136 -95 -178 -135 -17 -17 -91 -239 -108
-325 -16 -84 -26 -140 -31 -175 -10 -64 -18 -385 -10 -385 6 0 162 124 272
218 l52 44 53 -49 c150 -138 298 -248 403 -300 60 -29 78 -34 121 -30 99 10
275 111 490 283 58 47 110 86 114 87 4 1 41 -28 81 -65 259 -234 467 -373 574
-386 107 -12 257 84 522 334 67 63 126 114 130 114 4 -1 33 -25 64 -54 167
-153 323 -273 429 -326 121 -62 255 -20 560 173 133 84 139 91 134 169 -8 133
-17 201 -49 363 -15 78 -67 235 -77 235 -5 0 -25 -11 -46 -24 -163 -106 -326
-176 -410 -176 -103 0 -311 137 -540 355 -35 33 -65 60 -67 60 -2 0 -50 -45
-107 -100 -179 -174 -319 -284 -421 -330 -87 -40 -138 -36 -252 24 -110 57
-326 223 -470 362 l-50 49 -100 -81z"/>
<path d="M727 2478 c-73 -58 -78 -64 -73 -92 3 -17 8 -47 11 -66 35 -207 153
-507 276 -695 173 -267 401 -490 655 -641 137 -82 366 -181 482 -210 130 -31
227 -49 337 -60 140 -14 380 -9 528 11 182 25 414 97 587 184 391 194 708 513
900 906 53 108 123 292 134 348 2 12 11 49 19 82 9 33 18 78 21 100 4 22 8 54
11 70 2 17 7 49 9 72 l5 43 -97 -72 c-264 -195 -482 -314 -608 -332 -42 -5
-131 26 -201 71 -52 32 -160 110 -173 123 -3 3 -32 27 -65 55 -33 27 -88 76
-123 109 l-63 60 -76 -75 c-114 -112 -123 -120 -193 -180 -164 -141 -284 -209
-364 -205 -90 4 -218 76 -406 227 -108 87 -134 110 -207 180 l-52 50 -118 -92
c-146 -115 -291 -210 -380 -251 -88 -41 -157 -43 -228 -9 -48 24 -189 114
-211 135 -6 6 -30 27 -54 46 -57 45 -104 86 -154 132 -23 21 -43 38 -46 37 -3
0 -40 -28 -83 -61z"/>
</g>
</svg>
